<svg xmlns="http://www.w3.org/2000/svg" viewBox="0 0 800 420" role="img" aria-labelledby="title desc">
  <title id="title">配方总览插图</title>
  <desc id="desc">工作台网格和配方卡片</desc>
  <rect width="800" height="420" rx="28" fill="#132740"/>
  <rect x="78" y="78" width="220" height="220" rx="18" fill="#8b6135"/>
  <g fill="#cfa77a">
    <rect x="104" y="104" width="54" height="54" rx="10"/>
    <rect x="170" y="104" width="54" height="54" rx="10"/>
    <rect x="236" y="104" width="54" height="54" rx="10"/>
    <rect x="104" y="170" width="54" height="54" rx="10"/>
    <rect x="170" y="170" width="54" height="54" rx="10"/>
    <rect x="236" y="170" width="54" height="54" rx="10"/>
    <rect x="104" y="236" width="54" height="54" rx="10"/>
    <rect x="170" y="236" width="54" height="54" rx="10"/>
    <rect x="236" y="236" width="54" height="54" rx="10"/>
  </g>
  <rect x="356" y="92" width="350" height="74" rx="18" fill="#225c8f"/>
  <rect x="356" y="186" width="350" height="74" rx="18" fill="#2a7750"/>
  <rect x="356" y="280" width="350" height="74" rx="18" fill="#875d2c"/>
  <g fill="#eef7ff" font-family="Segoe UI, Microsoft YaHei, sans-serif">
    <text x="382" y="136" font-size="22" font-weight="700">工具与装备</text>
    <text x="382" y="230" font-size="22" font-weight="700">功能方块</text>
    <text x="382" y="324" font-size="22" font-weight="700">熔炼与酿造</text>
  </g>
</svg>